<?xml version="1.0" standalone="no"?>
<!DOCTYPE svg PUBLIC "-//W3C//DTD SVG 20010904//EN"
 "http://www.w3.org/TR/2001/REC-SVG-20010904/DTD/svg10.dtd">
<svg version="1.0" xmlns="http://www.w3.org/2000/svg"
 width="152.000000pt" height="152.000000pt" viewBox="0 0 152.000000 152.000000"
 preserveAspectRatio="xMidYMid meet">
<metadata>
Created by potrace 1.14, written by Peter Selinger 2001-2017
</metadata>
<g transform="translate(0.000000,152.000000) scale(0.100000,-0.100000)"
fill="#000000" stroke="none">
<path d="M0 760 l0 -760 760 0 760 0 0 760 0 760 -760 0 -760 0 0 -760z m1140
661 c-5 -11 -10 -48 -10 -83 0 -82 23 -122 80 -139 l40 -12 0 -204 0 -203 -67
0 c-79 0 -140 25 -166 69 -23 40 -22 48 13 55 17 3 42 18 55 32 22 24 25 36
25 103 0 112 -37 151 -142 151 -112 0 -166 -77 -142 -199 8 -40 56 -89 91 -93
20 -2 29 -10 34 -31 23 -86 105 -137 222 -137 l77 0 0 -141 0 -141 -55 -54
c-67 -66 -98 -71 -149 -21 -19 17 -37 42 -41 54 -5 18 -1 22 24 28 17 3 42 20
56 37 22 26 25 39 25 104 0 67 -3 76 -29 106 -29 32 -31 33 -111 33 -80 0 -82
-1 -111 -33 -26 -30 -29 -39 -29 -106 0 -65 3 -78 26 -105 15 -18 39 -33 60
-37 21 -4 34 -12 34 -22 0 -50 93 -142 144 -142 16 0 21 -26 8 -46 -4 -6 -21
-15 -38 -18 -17 -4 -46 -18 -65 -32 -18 -13 -44 -24 -58 -24 -16 0 -39 -15
-68 -45 l-43 -45 -86 0 c-75 0 -85 2 -82 17 2 10 16 20 33 23 114 24 205 135
205 249 0 64 -53 120 -112 121 -23 0 -28 4 -28 25 0 86 -86 135 -188 106 -31
-9 -32 -9 -32 23 0 21 -23 72 -67 150 -56 99 -74 121 -102 133 -60 25 -87 4
-166 -133 -75 -129 -85 -169 -49 -205 l20 -20 -24 -49 c-19 -39 -30 -50 -48
-50 l-24 0 0 485 0 485 535 0 c527 0 536 0 525 -19z m300 -216 l0 -235 -70 0
-70 0 0 109 0 109 29 7 c40 9 79 50 87 91 7 37 1 110 -10 137 -6 13 -3 17 13
17 21 0 21 -3 21 -235z m-102 209 c19 -13 22 -24 22 -78 0 -35 -5 -67 -12 -74
-7 -7 -39 -12 -74 -12 -76 0 -89 13 -89 87 0 45 4 58 24 74 29 23 98 25 129 3z
m-296 -301 c13 -12 18 -30 18 -70 0 -71 -21 -93 -90 -93 -68 0 -90 22 -90 92
0 71 17 88 88 88 38 0 61 -5 74 -17z m398 -407 l0 -213 -47 -6 c-27 -4 -58 -9
-70 -13 l-23 -6 0 226 0 226 70 0 70 0 0 -214z m-1013 64 c34 -58 62 -112 63
-120 0 -23 -20 -40 -47 -40 -27 0 -29 -8 -8 -38 15 -20 14 -24 -9 -59 -47 -68
-55 -164 -21 -246 7 -16 0 -18 -95 -15 -134 4 -140 11 -87 108 38 69 38 70 15
70 -28 0 -48 17 -48 40 0 9 16 42 35 74 19 32 35 60 35 62 0 2 -9 4 -19 4 -33
0 -51 11 -51 32 0 11 28 70 62 130 82 143 88 143 175 -2z m620 -106 c19 -25
17 -119 -3 -138 -10 -11 -34 -16 -74 -16 -75 0 -90 14 -90 84 0 79 21 98 104
92 33 -2 54 -9 63 -22z m-371 -102 c23 -15 34 -50 24 -76 -7 -19 -21 -28 -55
-37 -25 -6 -52 -21 -60 -32 -36 -52 -3 -117 58 -117 41 0 61 21 76 76 11 43
25 54 66 54 55 0 73 -76 36 -148 -67 -130 -231 -149 -328 -39 -86 99 -58 248
58 305 44 22 104 29 125 14z m764 -307 l0 -175 -267 0 c-268 1 -268 1 -244 20
13 11 36 20 51 20 15 0 33 7 41 16 19 23 65 44 97 44 26 0 30 4 36 38 3 21 23
62 44 92 45 65 138 120 203 120 l39 0 0 -175z m-1297 149 c32 -7 33 -13 6 -65
-41 -81 1 -139 102 -139 l59 0 0 -60 0 -60 -115 0 -115 0 0 171 c0 158 1 170
18 165 9 -3 29 -8 45 -12z m517 -27 c0 -8 -3 -17 -7 -20 -9 -9 -34 13 -27 24
8 14 34 11 34 -4z m-173 -207 c19 -17 54 -36 79 -42 31 -9 44 -17 44 -30 0
-15 -9 -18 -58 -18 -52 0 -60 3 -70 24 -6 13 -25 40 -42 60 -31 34 -31 36 -10
36 12 0 38 -14 57 -30z m-66 -72 c8 -15 5 -18 -21 -18 -28 0 -30 3 -30 37 0
36 0 36 21 17 11 -10 25 -27 30 -36z"/>
</g>
</svg>
